<svg xmlns="http://www.w3.org/2000/svg" viewBox="0 0 3405.75 3405.75"><defs><style>.cls-1{fill:none;}.cls-2{fill:#660808;}.cls-3{fill:#e28100;}</style></defs><g id="Laag_2" data-name="Laag 2"><g id="Laag_1-2" data-name="Laag 1"><rect class="cls-1" width="3405.75" height="3405.75"/><path class="cls-2" d="M1655.34,287.31v249c15.84-.86,31.69-1.5,47.53-1.5s31.69.64,47.54,1.5v-249Zm47.53,188.93c-204.94,0-390.33,41.3-521.85,91.9-65.5,25.3-117.79,53.14-151.59,77.33-29.58,21.5-37.51,40.83-39.09,37.71l36.44,242q7.67,50.71,15.32,101.41l119.37,796q7.93,52.83,15.85,105.64l15.32,103q8.19,54.41,16.37,108.81L1241.23,2354c11.09,15.31,64.44,48.06,147.37,67.08,87.15,20.07,200.71,30.63,314.27,30.63s227.13-10.56,314.28-30.63c82.93-19,136.27-51.77,147.37-67.08L2183,2231.43q8.46-57,16.9-114.09l90.85-604.26,16.38-107.22q43-287.61,86.09-575.21,9-59.94,18-119.9l4.23-27.57c-1.59,3.12-9.51-16.21-39.09-37.71-33.8-24.19-86.09-52-151.59-77.33-131.52-50.6-316.92-91.9-521.86-91.9Zm-47.53,1860.88v354h95.07v-354c-15.85.75-31.69.75-47.54.75S1671.18,2337.87,1655.34,2337.12Z"/><path class="cls-3" d="M1573,947.16l-162.18,289.42q27.76-35.83,73-45.7t87.81,4.93q42.54,14.79,73.47,58.69T1676,1360.23q0,94.08-68.09,158.59t-169.35,64.52q-102.15,0-169.8-63.17t-67.65-159.94q0-58.23,46.6-141.57l151.42-271.5Zm-191.3,472.65q22.85,23.76,56.9,23.75t56.9-23.75q22.85-23.73,22.85-59.58t-22.85-59.59q-22.86-23.73-56.9-23.74t-56.9,23.74q-22.85,23.76-22.85,59.59T1381.65,1419.81Z"/><path class="cls-3" d="M2101.6,947.16l-162.18,289.42q27.76-35.83,73-45.7t87.81,4.93q42.54,14.79,73.47,58.69t30.91,105.73q0,94.08-68.1,158.59t-169.34,64.52q-102.15,0-169.8-63.17t-67.65-159.94q0-58.23,46.6-141.57l151.42-271.5Zm-191.3,472.65q22.85,23.76,56.9,23.75t56.89-23.75q22.86-23.73,22.85-59.58t-22.85-59.59q-22.85-23.73-56.89-23.74t-56.9,23.74q-22.85,23.76-22.85,59.59T1910.3,1419.81Z"/><path d="M601.89,2822.55a23.94,23.94,0,0,1,2.85,8.1,91.27,91.27,0,0,1,.45,10.5v166.5q0,20.7-11.4,24.3a48.63,48.63,0,0,1-14.4,1.8,50.31,50.31,0,0,1-13.8-1.5,23.7,23.7,0,0,1-7.8-3.6,13.47,13.47,0,0,1-4.2-6c-1-3.4-1.5-8.59-1.5-15.6v-100.5q-7.5,9.3-21.9,29.55t-18.3,25.35c-2.6,3.41-4.4,5.75-5.4,7.05s-3.45,3.11-7.35,5.4a25.15,25.15,0,0,1-24.9.3,27.7,27.7,0,0,1-7.95-6.15l-2.4-3.3q-6-7.48-23.7-31.95T421,2906.55v101.1a86.92,86.92,0,0,1-.45,10.35,21.33,21.33,0,0,1-2.85,7.65q-4.5,8.1-23.4,8.1-18.3,0-22.8-8.1a21.3,21.3,0,0,1-2.85-7.8,94.86,94.86,0,0,1-.45-10.8v-166.5a87.15,87.15,0,0,1,.45-10.35,24.11,24.11,0,0,1,2.85-7.95q4.5-7.8,23.4-7.8a44.3,44.3,0,0,1,13.95,2q5.85,2,7.65,4l1.8,1.8,68.1,89.4q51-67.5,68.1-89.1,5.1-8.1,24.15-8.1T601.89,2822.55Z"/><path d="M756.09,2829.75l81,167.4q5.1,10.2,5.1,15.3,0,10.8-17.4,19.5-10.2,5.1-16,5.1a16,16,0,0,1-9.6-2.7,17.92,17.92,0,0,1-5.4-5.7q-1.65-3-4.65-9l-15.6-32.4h-83.1l-15.6,32.4c-2,4-3.55,6.9-4.65,8.7a21.37,21.37,0,0,1-5.4,5.55,15.42,15.42,0,0,1-9.6,2.85q-5.85,0-16-5.1-17.4-8.39-17.4-19.2,0-5.1,5.1-15.3l81-167.7a26.26,26.26,0,0,1,10.05-11.1,26.55,26.55,0,0,1,14.25-4.2Q748.29,2814.15,756.09,2829.75Zm-24.3,72-19.8,41.1h39.9Z"/><path d="M1027,2996.85q4.5,10.8,4.5,15.6,0,11.41-18.6,19.2-9.6,4.2-15.45,4.2a15.42,15.42,0,0,1-9.6-2.85,21.49,21.49,0,0,1-5.55-5.85q-3-5.68-23.4-54.3l-9.3.6h-37.8v33.9a86.92,86.92,0,0,1-.45,10.35,24,24,0,0,1-2.85,8q-4.2,8.1-23.4,8.1-21,0-24.6-11.1c-1.2-3.4-1.8-8.59-1.8-15.6v-166.5a87.15,87.15,0,0,1,.45-10.35,24.11,24.11,0,0,1,2.85-7.95q4.2-8.1,23.4-8.1h64.8q26.4,0,51.3,19.2,12,9.3,19.8,25.2a79.32,79.32,0,0,1,7.8,35.4q0,33.91-22.5,55.8Q1013.19,2965.67,1027,2996.85Zm-115.2-76.5h38.4q8.7,0,17.4-6.6t8.7-19.8q0-13.2-8.7-19.95t-18-6.75h-37.8Z"/><path d="M1142.19,2923.65q45.9,44.1,65.1,66.3,9.9,11.1,9.9,18.75t-12,18q-12,10.35-19.65,10.35t-18.45-12.6l-66-75.3v58.5a86.6,86.6,0,0,1-.45,10.5,24.1,24.1,0,0,1-2.85,7.8q-4.21,8.1-23.4,8.1-21,0-24.6-11.4-1.8-4.79-1.8-15.3v-166.8a87.15,87.15,0,0,1,.45-10.35,23.89,23.89,0,0,1,2.85-7.95q4.2-8.1,23.4-8.1,21,0,24.9,11.1c1,3.41,1.5,8.6,1.5,15.6v57.3q40.79-45.9,66-75.3,10.5-12.3,18.3-12.3t19.8,10.35q12,10.35,12,18t-9,18.15q-17.4,20.1-54,55.2Z"/><path d="M1292.79,2981h92.4a87.38,87.38,0,0,1,10.35.45,24.11,24.11,0,0,1,8,2.85q8.1,4.22,8.1,23.4,0,21-11.1,24.6-5.12,1.8-15.6,1.8h-118.8q-21,0-24.6-11.4-1.8-4.79-1.8-15.3v-166.8q0-15.3,5.7-20.85t21.6-5.55h118.2a87.38,87.38,0,0,1,10.35.45,24.11,24.11,0,0,1,8,2.85q8.1,4.22,8.1,23.4,0,21-11.1,24.6-5.12,1.8-15.6,1.8h-92.1v30.3h59.4a87.38,87.38,0,0,1,10.35.45,24.11,24.11,0,0,1,8,2.85q8.1,4.21,8.1,23.4,0,21-11.4,24.6-5.12,1.8-15.6,1.8h-58.8Z"/><path d="M1445.48,2813.85h166.8q9.6,0,14.1,2.25a11.4,11.4,0,0,1,6,7.05,43.36,43.36,0,0,1,1.5,12.6,41.75,41.75,0,0,1-1.5,12.45,10.27,10.27,0,0,1-5.1,6.45q-5.4,2.7-15.3,2.7h-57.3v150.9a83,83,0,0,1-.45,10.2,24.18,24.18,0,0,1-2.7,7.65q-2.25,4.35-8,6.15a51.14,51.14,0,0,1-15,1.8q-9.3,0-14.85-1.8a12.67,12.67,0,0,1-7.8-6.15,24.13,24.13,0,0,1-2.7-7.8,86.92,86.92,0,0,1-.45-10.35v-150.6h-57.6q-9.6,0-14.1-2.25a11.38,11.38,0,0,1-6-7,43.27,43.27,0,0,1-1.5-12.6,41.84,41.84,0,0,1,1.5-12.45,10.3,10.3,0,0,1,5.1-6.45Q1435.58,2813.85,1445.48,2813.85Z"/><path d="M1908.07,3034.35q-26.1,0-51.59-13.5-28.51,15.6-57.61,15.6-77.1,0-77.1-64.2,0-33.3,34.5-61.8-12-26.7-12-48.3,0-30,18-44.4t48.3-14.4q30.3,0,45.91,14.4t15.59,39.3q0,21-17.09,37.8-12.62,12.6-35.41,27.9a212.76,212.76,0,0,0,38.41,39.6,85.64,85.64,0,0,0,11.69-26.4q3-13.2,27-13.2,10.2,0,15.45,2.7t6,5.55a23.5,23.5,0,0,1,.45,7.35q-1.2,22.8-18.59,45.3a42.88,42.88,0,0,0,8.39.9q23.42,0,23.4,23.7,0,16.5-5.4,21.3T1908.07,3034.35ZM1801,2992.05a69.29,69.29,0,0,0,13.5-1.2,231.07,231.07,0,0,1-33-37.2q-6.92,8.71-6.91,18Q1774.57,2992.07,1801,2992.05Zm-9.31-133.5q0,10.8,5.1,24.3a200.49,200.49,0,0,0,21.15-15q7-6,7.06-11.4,0-13.2-14.71-13.2Q1791.67,2843.25,1791.67,2858.55Z"/><path d="M2053.27,2813.85l55.5.3q43.49,0,76.5,31.35t33,77.1q0,45.75-32.25,78.45t-78.15,32.7H2053q-18.3,0-22.8-7.5-3.6-6.3-3.6-19.2v-166.8a86.72,86.72,0,0,1,.45-10.5,24,24,0,0,1,2.85-7.8Q2034.07,2813.85,2053.27,2813.85Zm94.5,150.75q17.39-16,17.4-40.35t-17-40.65q-16.95-16.35-39.75-16.35h-28.8v113.4h29.1Q2130.37,2980.65,2147.77,2964.6Z"/><path d="M2341,2811.45q44.39,0,77.1,32.1t32.7,79.65q0,47.55-31.2,81t-76.8,33.45q-45.61,0-77.55-33t-31.95-78.6a120.83,120.83,0,0,1,9-46.65q9-21.75,24-36.45a112.29,112.29,0,0,1,34.5-23.1A100.78,100.78,0,0,1,2341,2811.45Zm-25.35-17.7c-3.9,1.2-9.06,1.8-15.45,1.8s-11.51-.6-15.3-1.8a12.94,12.94,0,0,1-8.1-6.45,25.24,25.24,0,0,1-2.85-8.1,78.08,78.08,0,0,1-.3-10.8,96,96,0,0,1,.6-10.5,26.17,26.17,0,0,1,2.7-7.65q2.25-4.5,8.1-6.3c3.9-1.2,9-1.8,15.45-1.8s11.49.6,15.3,1.8a13.08,13.08,0,0,1,8.1,6.45,25.91,25.91,0,0,1,2.85,8.1,122.72,122.72,0,0,1,0,21,24.26,24.26,0,0,1-2.85,7.95C2322.26,2790.45,2319.52,2792.55,2315.62,2793.75Zm-29.25,130.8q0,26.72,17.25,43.35t38.55,16.65q21.28,0,38.4-16.2t17.1-43.5q0-27.29-17.25-43.8t-38.55-16.5q-21.32,0-38.4,16.65T2286.37,2924.55Zm110.25-130.8c-3.9,1.2-9.06,1.8-15.45,1.8s-11.51-.6-15.3-1.8a12.94,12.94,0,0,1-8.1-6.45,25.24,25.24,0,0,1-2.85-8.1,126.25,126.25,0,0,1,0-21.3,22.52,22.52,0,0,1,2.85-7.8c1.59-2.89,4.35-4.95,8.25-6.15s9-1.8,15.45-1.8,11.49.6,15.3,1.8a13.08,13.08,0,0,1,8.1,6.45,25.91,25.91,0,0,1,2.85,8.1,122.72,122.72,0,0,1,0,21,24.26,24.26,0,0,1-2.85,7.95C2403.26,2790.45,2400.52,2792.55,2396.62,2793.75Z"/><path d="M2612.31,2823.3a14.31,14.31,0,0,1,8.55-7.05,48,48,0,0,1,14.25-1.8,51.72,51.72,0,0,1,13.8,1.5,22.22,22.22,0,0,1,7.8,3.6,12.24,12.24,0,0,1,3.75,6.3q1.8,4.8,1.8,15.3v166.5a86.6,86.6,0,0,1-.45,10.5,24.1,24.1,0,0,1-2.85,7.8q-4.2,8.1-23.4,8.1-11.7,0-16.2-1.8a17.52,17.52,0,0,1-7.5-5.7q-67.5-90-88.8-117.6v98.7a86.6,86.6,0,0,1-.45,10.5,24.1,24.1,0,0,1-2.85,7.8q-4.2,8.1-23.4,8.1-18.6,0-22.8-8.1a23.94,23.94,0,0,1-2.85-8.1,91.15,91.15,0,0,1-.45-10.5V2840q0-11.4,2.85-16.65a14.31,14.31,0,0,1,8.55-7.05,49.87,49.87,0,0,1,14.7-1.8c6,0,10.75.56,14.25,1.65s5.95,2.36,7.35,3.75q1.2.9,6.9,7.8,63.3,86.11,84.6,113.7V2840Q2609.46,2828.55,2612.31,2823.3Z"/><path d="M2739.36,2981h92.4a87.15,87.15,0,0,1,10.35.45,24,24,0,0,1,7.95,2.85q8.1,4.22,8.1,23.4,0,21-11.1,24.6-5.1,1.8-15.6,1.8h-118.8q-21,0-24.6-11.4-1.8-4.79-1.8-15.3v-166.8q0-15.3,5.7-20.85t21.6-5.55h118.2a87.15,87.15,0,0,1,10.35.45,24,24,0,0,1,7.95,2.85q8.1,4.22,8.1,23.4,0,21-11.1,24.6-5.1,1.8-15.6,1.8h-92.1v30.3h59.4a87.15,87.15,0,0,1,10.35.45,24,24,0,0,1,7.95,2.85q8.1,4.21,8.1,23.4,0,21-11.4,24.6-5.1,1.8-15.6,1.8h-58.8Z"/><path d="M3046,2996.85q4.5,10.8,4.5,15.6,0,11.41-18.59,19.2-9.62,4.2-15.45,4.2a15.4,15.4,0,0,1-9.6-2.85,21.18,21.18,0,0,1-5.55-5.85q-3-5.68-23.4-54.3l-9.3.6h-37.8v33.9a86.92,86.92,0,0,1-.45,10.35,24.08,24.08,0,0,1-2.86,8q-4.2,8.1-23.39,8.1-21,0-24.61-11.1c-1.19-3.4-1.79-8.59-1.79-15.6v-166.5a87.15,87.15,0,0,1,.45-10.35,24.06,24.06,0,0,1,2.84-7.95q4.2-8.1,23.41-8.1h64.8q26.39,0,51.29,19.2,12,9.3,19.81,25.2a79.45,79.45,0,0,1,7.8,35.4q0,33.91-22.5,55.8Q3032.14,2965.67,3046,2996.85Zm-115.19-76.5h38.4q8.68,0,17.4-6.6t8.7-19.8q0-13.2-8.7-19.95t-18-6.75h-37.8Z"/></g></g></svg>