<svg xmlns="http://www.w3.org/2000/svg" viewBox="0 0 2405.99 2221.47"><defs><style>.cls-1{fill:#8e2532;}.cls-2{fill:#565656;}.cls-3{fill:#fff;}.cls-4{fill:#ffe600;}.cls-5{fill:#ccc;}</style></defs><g id="Laag_2" data-name="Laag 2"><g id="Laag_1-2" data-name="Laag 1"><circle class="cls-1" cx="1202.54" cy="1037.65" r="1037.65"/><circle class="cls-2" cx="1202.44" cy="1037.4" r="1015.33"/><circle class="cls-3" cx="1202.73" cy="1037.83" r="759.97"/><circle class="cls-1" cx="1202.65" cy="1037.65" r="743.62"/><path class="cls-3" d="M377.45,854.71l-7.24,33.65-99-21.27,7.15-33.26c6.24-29,22.54-38.1,57.78-30.52C372.59,811.14,383.29,827.52,377.45,854.71Zm-79.91-16.9-2.72,12.67,60.84,13.08,2.72-12.67c2.95-13.73-.37-20.11-27-25.84C306.67,819.75,300.58,823.69,297.54,837.81Z"/><path class="cls-3" d="M390.46,736.86l18.11,6.3-18.84,59.46L293.21,772l18.27-57.66,18.65,5.49-12,37.84L338,764,348,732.2l17,5.38L355,769.37l22.91,7.26Z"/><path class="cls-3" d="M431.06,641.28l17.7,8.69-24.15,52.8-92.08-42.13,8.87-19.4,74.16,33.93Z"/><path class="cls-3" d="M467.4,577.32l16.43,9.88-30.64,54.34L365,591.8l29.71-52.68,17.13,9.19-19.49,34.58,18.11,10.21,16.38-29.05,15.52,8.76L426,601.86l20.93,11.8Z"/><path class="cls-3" d="M519.93,534.29l-48.41-6.1-5.17,7.43,35.45,24.7-12.12,17.39-83.07-57.9,12.12-17.38L452,525.58l5.48-7.86-20.73-41.1,13.74-19.72,24.18,49.6,59.74,7.08Z"/><path class="cls-3" d="M574,467.45l-47.53-11-5.9,6.86,32.74,28.18-13.83,16.06L462.77,441.5l13.83-16.07,30.7,26.43,6.25-7.27-16.43-43,15.68-18.21,19,51.81,58.71,13.12Z"/><path class="cls-3" d="M628.6,385.47l12.9,14.2-45,43.22-70.17-73L570,328l13.76,13.73-28.61,27.51,14.4,15,24-23.11L605.91,374l-24,23.11,16.65,17.32Z"/><path class="cls-3" d="M664.6,325.79,708,345.92l-19.19,15.33-36.65-20.14-9.71,7.75L666.52,379,650,392.26l-63.19-79.11,26-20.73c18.46-14.74,33.24-14.63,46.88,2.46C668.62,306.17,670.28,317.11,664.6,325.79ZM624.39,306.6l-9.6,7.67L632,335.78l9.38-7.5c7.28-5.81,8.55-10.28,1.56-19C636.34,301,631.66,300.78,624.39,306.6Z"/><path class="cls-3" d="M735.66,330c-8.78,5.82-18.52,9.2-27.59,9.7l-7.92-17.1c8.84-.84,17.12-3.25,24.66-8.24,8.44-5.6,10-11.32,5.89-17.51-9.18-13.84-41.08,14.27-59.35-13.3-9.47-14.3-8.11-31.07,11.35-44,7.66-5.07,16.39-8.75,24-9.93l8.12,16.65a68.09,68.09,0,0,0-20.28,8.74c-9.57,6.34-9.88,11.73-6.75,16.46,8.95,13.5,40.78-14.72,59.12,13C757.91,301,753.89,318,735.66,330Z"/><path class="cls-3" d="M765.41,215.22l39.35,71.26L786,296.86l-39.35-71.27-21.51,11.88L716,219.84l61-33.68,9.95,17.18Z"/><path class="cls-3" d="M883.5,228.05l7.3,17.73-57,25.36-41.16-92.5,55.25-24.59,8.27,17.6-36.25,16.13,8.45,19,30.46-13.56,7.25,16.28-30.47,13.56L845.39,245Z"/><path class="cls-3" d="M945,141.77l23.64,77.9-20.54,6.24L924.49,148,901,155.14,895.73,136l66.66-20.22,6.15,18.87Z"/><path class="cls-3" d="M1064.87,162.24c4.83,23.81-5.11,37.95-29.19,42.84s-39-4.21-43.84-28l-13.29-65.5,20.9-4.24,13.24,65.23c2.31,11.38,7.93,15.33,19,13.08s14.64-7.93,12.31-19.44L1030.81,101l20.77-4.21Z"/><path class="cls-3" d="M1133.88,146.25l25.48,40.46-24.45,2.44-19.83-36.81-12.36,1.23,3.85,38.42-21.09,2.11L1075.4,93.35l33-3.3c23.51-2.36,35.86,5.77,38,27.53C1147.91,132,1143.36,142,1133.88,146.25Zm-23.34-38-12.22,1.22,2.74,27.41,12-1.2c9.27-.93,12.76-4,11.65-15.14C1123.61,110.1,1119.81,107.36,1110.54,108.29Z"/><path class="cls-3" d="M1219.57,186.65l-22.67-43.21h-9v43.2h-21.2l0-101.24h21.2v40.5h9.58l21.88-40.49h24l-26.87,48.19,28.34,53.06Z"/><path class="cls-3" d="M1277,191.74c-10.48-1-20.19-4.44-27.57-9.73l4.54-18.29c7.41,4.89,15.37,8.2,24.38,9,10.08.93,14.88-2.56,15.56-9.95,1.53-16.54-40.95-14.63-37.91-47.56,1.58-17.07,13.14-29.29,36.4-27.14,9.14.84,18.26,3.44,25,7.31l-4.11,18.06a67.85,67.85,0,0,0-21.28-5.89c-11.43-1.06-15.05,3-15.57,8.59-1.49,16.13,41,14.09,37.94,47.16C1312.46,183.09,1298.73,193.75,1277,191.74Z"/><path class="cls-3" d="M1387.26,187.26,1383.15,206l-61.27-11.66,18.93-99.46,59.41,11.31L1397,125.35l-39-7.42-3.89,20.42,32.76,6.24-3.34,17.5-32.75-6.23-4.5,23.6Z"/><path class="cls-3" d="M1448.07,224.9c-10.07-3.08-18.87-8.46-25-15.14l8.16-17c6.26,6.3,13.38,11.16,22,13.81,9.68,3,15.09.52,17.26-6.58,4.86-15.88-37.11-22.65-27.44-54.28,5-16.39,18.83-26,41.16-19.17,8.78,2.69,17.17,7.09,22.94,12.24l-7.7,16.85a67.94,67.94,0,0,0-19.64-10.11c-11-3.35-15.33-.17-17,5.25-4.74,15.49,37.27,22.14,27.56,53.89C1484.59,223.65,1469,231.3,1448.07,224.9Z"/><path class="cls-3" d="M1534.6,217.61l-10.88-4.42-12.8,31.53-19.64-8,38.08-93.81,30.52,12.39c24,9.75,30,23.27,21.06,45.41C1572.81,220.74,1559,227.51,1534.6,217.61Zm18.25-45.33-10.75-4.37-11.78,29,10.88,4.42c9.5,3.86,14.65,3,19.52-9C1565.34,181,1563,176.39,1552.85,172.28Z"/><path class="cls-3" d="M1629.85,279.53l-9.29,16.78-55.4-28.65,46.51-89.94,53.72,27.79L1656.82,223l-35.25-18.23L1612,223.19l29.62,15.32-8.19,15.83L1603.83,239l-11,21.34Z"/><path class="cls-3" d="M1721,264.57a50.78,50.78,0,0,0-13.2-12c-13.94-8.77-22.43-5.67-35.66,15.36-14.1,22.39-13.14,31.77.91,40.61a41.3,41.3,0,0,0,16.76,6.08L1682.08,331a54.28,54.28,0,0,1-21.85-7.86c-23.89-15-26.57-35.85-6.94-67.05,18.48-29.36,38.74-36.71,63.76-21,6.06,3.81,12.67,10,15.79,14.71Z"/><path class="cls-3" d="M1749.45,259.2,1767,272l-59.52,81.9-17.58-12.78Z"/><path class="cls-3" d="M1774,382.07l-24.69-21-16.74,12-17.08-14.51,89.24-57,19.75,16.79-41.62,97.51-18-15.3ZM1794.52,329l-29.62,21.08L1782.49,365l16-32.62,5.24-9.71-.3-.27Z"/><path class="cls-3" d="M1842.71,449.53l-14.47,13.39-40.6-41.49L1860,350.62l14.92,15.25-58.28,57Z"/><path class="cls-3" d="M1912.07,405.6l14.17,16.48-76.74,66-14.18-16.48Z"/><path class="cls-3" d="M1949.17,483.36l-65.08,48.9-12.9-17.16,65.09-48.9-14.76-19.64,16.19-11.49,41.84,55.69L1963.93,503Z"/><path class="cls-3" d="M1952.92,602l-16.54,9.7-33.07-52.88,85.84-53.68,32.07,51.28L2005,567.11l-21-33.65-17.63,11L1984,572.75l-15.11,9.45-17.68-28.27-20.37,12.74Z"/><path class="cls-3" d="M2031.51,575.59l10.26,19.16-89.27,47.78-10.26-19.16Z"/><path class="cls-3" d="M2050.82,659.54l-74.16,33.58-8.85-19.56L2042,640l-10.13-22.38,18.3-7.69,28.73,63.45L2061,681.92Z"/><path class="cls-3" d="M2028.65,776.24l-18.26,5.87-20.75-58.82,95.49-33.68,20.11,57-18.19,6.84-13.21-37.43-19.6,6.92,11.09,31.44-16.8,5.93-11.1-31.44-22.66,8Z"/><path class="cls-3" d="M2028,850.24l44.9-46.83,7.81-7.77-.19-.23-10.59,2.75-51.64,12.76-4.5-18.22,98.3-24.28,4.37,17.69-50.63,51.17.19.23,10.42-2.86,49-12.1,4.47,18.09-98.3,24.27Z"/><path class="cls-1" d="M289.86,1037.72c-51.2-.8-96-28.79-108.26-68H402.7C390,1010.21,342.7,1038.54,289.86,1037.72Z"/><path class="cls-1" d="M2119.55,1037.72c-51.19-.8-96-28.79-108.25-68h221.09C2219.68,1010.21,2172.39,1038.54,2119.55,1037.72Z"/><path class="cls-4" d="M1098.8,675.72q-89.52,130.14-179,260.29a170.25,170.25,0,0,1,73.37-11.17c5.25.38,22.87,2.39,44.83,9.55q54.52,17.79,94.16,70.62t39.61,127.22q0,113.2-87.27,190.83t-217,77.62q-130.89,0-217.59-76-37.26-32.67-58.51-72.81c-27.88-52.66-28.32-100.68-28.18-119.64.5-68.73,29.77-123.13,79.61-197.76C689,865.31,755.09,775.34,846.18,675.72ZM811.87,1223.07q26.39,31.76,65.7,31.75t65.7-31.75q26.37-31.72,26.38-79.68t-26.38-79.67Q916.89,1032,877.57,1032t-65.7,31.76q-26.39,31.76-26.38,79.67T811.87,1223.07Z"/><path class="cls-4" d="M1769.75,675.72,1590.72,936a170.28,170.28,0,0,1,73.37-11.17c5.25.38,22.87,2.39,44.83,9.55q54.52,17.79,94.16,70.62t39.62,127.22q0,113.2-87.27,190.83t-217,77.62q-130.9,0-217.6-76-37.26-32.67-58.51-72.81c-27.87-52.66-28.32-100.68-28.18-119.64.5-68.73,29.77-123.13,79.61-197.76,46.18-69.16,112.31-159.13,203.41-258.75Zm-286.93,547.35q26.39,31.76,65.7,31.75t65.7-31.75q26.38-31.72,26.38-79.68t-26.38-79.67q-26.38-31.74-65.7-31.76t-65.7,31.76q-26.37,31.76-26.38,79.67T1482.82,1223.07Z"/><path class="cls-5" d="M392.38,2128.74a468.32,468.32,0,0,0-126.93-15.28,422.46,422.46,0,0,0-54.08,4.22c-36.74,5.49-95.71,20.8-167,69.2q75.51-117.26,151-234.53L20.18,1875.49c47.69-33.19,107.12-68.22,177.37-96.57a795,795,0,0,1,194.83-51.57Z"/><path d="M11.13,2221.36,181.29,1957.1,0,1877.58l15.56-10.83c57.27-39.84,117.5-72.64,179-97.47a805.85,805.85,0,0,1,196.77-52.08l9.91-1.3v425.64l-10.87-2.83a462.32,462.32,0,0,0-124.82-15,418.43,418.43,0,0,0-53.07,4.14c-54.18,8.1-109.21,30.93-163.59,67.87Zm29.43-347.87,169,74.12L75.39,2156c44.88-25.47,90.08-41.72,134.83-48.41a432.08,432.08,0,0,1,55.08-4.3,475.07,475.07,0,0,1,118.17,12.84V1738.87a791.33,791.33,0,0,0-183,49.69A889,889,0,0,0,40.56,1873.49Z"/><path class="cls-5" d="M2013.61,2128.85a468.32,468.32,0,0,1,126.93-15.28,422.46,422.46,0,0,1,54.08,4.22c36.74,5.49,95.71,20.8,167,69.21l-151-234.54,175.24-76.86c-47.69-33.18-107.12-68.22-177.37-96.57a794.45,794.45,0,0,0-194.83-51.56Z"/><path d="M2357.06,2195.79c-54.38-36.94-109.41-59.77-163.59-67.87a415.85,415.85,0,0,0-53.07-4.13,461.91,461.91,0,0,0-124.82,15l-10.87,2.83V1716l9.91,1.29a805.85,805.85,0,0,1,196.77,52.08c61.54,24.83,121.77,57.63,179,97.47l15.56,10.83-181.29,79.52,170.16,264.26Zm-151.58-407.12a791.28,791.28,0,0,0-183-49.69v377.21a476.15,476.15,0,0,1,118.18-12.84,430.9,430.9,0,0,1,55.08,4.31c44.75,6.69,89.95,22.93,134.83,48.4l-134.15-208.34,169-74.12A889,889,0,0,0,2205.48,1788.67Z"/><path class="cls-5" d="M2105.25,1820.94a4219.92,4219.92,0,0,0-1805.12,0v341.28a4219.92,4219.92,0,0,1,1805.12,0Z"/><path d="M2116.28,2178l-13-2.85a4210.72,4210.72,0,0,0-1801.12,0l-13,2.85V1810l9-2a4229.54,4229.54,0,0,1,1809.12,0l9,2ZM311.16,1831.88v314.6a4229.05,4229.05,0,0,1,1783.06,0v-314.6a4210.87,4210.87,0,0,0-1783.06,0Z"/><path class="cls-1" d="M1468.88,1983.34l-49.35-5,15.17-157.95,48.77,4.93c42.58,4.3,58.09,28,52.69,84.21C1530.58,1967.67,1508.75,1987.37,1468.88,1983.34Zm11.86-127.45-18.58-1.88-9.33,97.09,18.58,1.87c20.13,2,28.75-4.32,32.84-46.87C1508,1866.72,1501.44,1858,1480.74,1855.89Z"/><path class="cls-1" d="M1600.9,2001.15c-40.34-5.14-55.34-30.72-48.45-88.91s26.6-79.13,67.71-73.89,55.36,30.51,48.47,88.7C1661.6,1986.5,1642,2006.39,1600.9,2001.15ZM1616.53,1869c-19.49-2.49-27.32,5.69-32.24,47.28-4.94,41.8.72,51.91,20.4,54.41,19.5,2.49,27.18-6.13,32.1-47.72C1641.73,1881.18,1636.22,1871.53,1616.53,1869Zm-13.4-39c-7.92-1-11.55-5.09-10.48-14.13,1-8.19,5.55-12.08,13.46-11.08,8.1,1,11.44,5.94,10.47,14.13C1615.59,1827.32,1611.23,1831,1603.13,1830Zm35.7,4.55c-7.91-1-11.54-5.09-10.47-14.13,1-8.19,5.54-12.08,13.45-11.08,8.3,1.06,11.45,5.94,10.48,14.13C1651.29,1831.87,1647.13,1835.6,1638.83,1834.54Z"/><path class="cls-1" d="M1763.13,2021.66,1725.7,1929l-6-15.9-.41.14-2.21,17-11.63,82.5-26.74-4.12,22.16-157.06,26,4,40,103.53.41-.15,2-16.81,11-78.32,26.54,4.1-22.15,157Z"/><path class="cls-1" d="M1903,2015.51l-5.56,29.5-88.53-15.85,25.32-156.52,85.86,15.36-4.29,30.15-56.34-10.08-5.2,32.14,47.33,8.47-4.46,27.55-47.33-8.47-6,37.15Z"/><path class="cls-1" d="M2002.46,1997.73l18.18,72-34.74-7L1974,1998.64l-17.56-3.55-10.81,59.47-30-6.08,28.34-156,47,9.52c33.4,6.77,47,24.4,40.9,58.09C2027.81,1982.38,2017.3,1995.56,2002.46,1997.73Zm-16.26-67.33-17.37-3.52-7.71,42.42,17,3.45c13.17,2.66,19.27-.41,22.41-17.67C2003.46,1938.86,1999.37,1933.07,1986.2,1930.4Z"/><path class="cls-1" d="M406.12,1905.22l42.8,85.37,7.31,15,.58-.1,2.48-16.71,16.56-95.62,33.61-5.81,22.9,156.71-27.66,4.79-11.51-78.78-2.09-17-.61-.11-2.64,17-14.46,84.34-20.17,3.48-37.57-75.12-7.34-15.23-.35.28,2.66,16.89,11.48,78.56-26.51,4.59L372.7,1911Z"/><path class="cls-1" d="M626.85,1998.88l-46.28,6.62-3.39,32.06-32,4.58,25.34-163.67,37-5.29,64,150.9-33.74,4.82ZM590,1919.22l-6.11,56.57,33-4.71-19.35-52.93-5.3-16.31-.58.08Z"/><path class="cls-1" d="M753.39,1947l37.19,63.08-35.2,4.15-29-57.45-17.79,2.09,6,60.16-30.36,3.58-15.69-157.76,47.56-5.6c33.84-4,51.72,8.59,55.12,42.67C773.45,1924.43,767,1940.3,753.39,1947Zm-34.06-59.19-17.6,2.07L706,1932.8l17.21-2c13.34-1.57,18.34-6.41,16.6-23.87C738.18,1890.49,732.67,1886.25,719.33,1887.82Z"/><path class="cls-1" d="M879.54,2001.77l-37.85-64.44-13,1.21L834,2006l-30.43,2.82-12.41-158.11,30.43-2.82,5,63.24,13.76-1.28,26.43-66.16,34.5-3.2-32.66,78.84,47.2,79.07Z"/><path class="cls-1" d="M1018.53,1961.24l1,30-89.68,6.21-9.27-158.36,87-6,2.36,30.37-57.07,4,1.91,32.52,47.94-3.32,1.63,27.87-47.94,3.32,2.2,37.59Z"/><path class="cls-1" d="M1088.66,1860.17l5.14,127.45-30.89,1.48-5.14-127.46-35.37,1.69-.48-31.11,100.27-4.78,1.84,31Z"/><path class="cls-1" d="M1325.63,1981.25c-9.21-4.52-19-11.15-28.64-18.84-11.13,12-25.62,20.49-43.51,20.75-29.37.44-41.3-20.55-41.59-43.6-.26-20.74,10.84-35.29,23.53-46.91-7.36-12.79-12-25-12.11-34.73-.26-21.37,10-38.45,38.81-38.88,22-.32,37.69,11.72,37.94,31.39.24,19.25-15.35,33-30.35,46.16a223.76,223.76,0,0,0,24.06,26.09,110.54,110.54,0,0,0,8.61-26.79l24.31-.15c-1,11-5.3,27.38-13.27,42.94a146.85,146.85,0,0,0,22.34,13.43Zm-48.11-35.9a296,296,0,0,1-27.23-30.49c-5.56,6.65-9.17,13.68-9.07,21.51.14,11,6.25,17.05,16.55,16.89C1265.16,1953.15,1271.74,1950.09,1277.52,1945.35Zm-21.69-69.29c9.25-7.55,16.16-14.42,16.25-22.46-.08-7-4.4-10.3-10.43-10.22-7.2.11-12,4.84-11.89,13.94C1249.82,1862.39,1252.05,1868.92,1255.83,1876.06Z"/></g></g></svg>